<svg width="24" height="24" viewBox="0 0 24 24" fill="none" xmlns="http://www.w3.org/2000/svg">
<path d="M12 2.25C10.0347 2.25 8.14995 3.03069 6.7603 4.42034C5.37066 5.80998 4.58997 7.69475 4.58997 9.66V9.66V10.2C4.88997 14.26 8.25997 17.525 12 21.75C15.905 17.34 19.41 14 19.41 9.66C19.41 7.69475 18.6293 5.80998 17.2396 4.42034C15.85 3.03069 13.9652 2.25 12 2.25ZM12 6.1C12.7053 6.1 13.3947 6.30921 13.9811 6.70116C14.5675 7.09311 15.0244 7.65018 15.2941 8.30189C15.5638 8.9536 15.6341 9.67066 15.4961 10.3623C15.3581 11.054 15.0181 11.6892 14.519 12.1876C14.02 12.686 13.3843 13.0251 12.6924 13.1621C12.0005 13.2991 11.2836 13.2278 10.6322 12.9572C9.9809 12.6866 9.42447 12.2289 9.03334 11.642C8.64222 11.0551 8.43398 10.3653 8.43497 9.66C8.43629 8.71537 8.81247 7.80988 9.4809 7.1424C10.1493 6.47491 11.0553 6.1 12 6.1Z" stroke="#FCFCFB" stroke-linecap="round" stroke-linejoin="round"/>
</svg>
